<?xml version="1.0" standalone="no"?>
<!DOCTYPE svg PUBLIC "-//W3C//DTD SVG 20010904//EN"
 "http://www.w3.org/TR/2001/REC-SVG-20010904/DTD/svg10.dtd">
<svg version="1.0" xmlns="http://www.w3.org/2000/svg"
 width="224.000000pt" height="224.000000pt" viewBox="0 0 224.000000 224.000000"
 preserveAspectRatio="xMidYMid meet">

<g transform="translate(0.000000,224.000000) scale(0.100000,-0.100000)"
fill="#000000" stroke="none">
<path d="M1003 2223 c9 -2 23 -2 30 0 6 3 -1 5 -18 5 -16 0 -22 -2 -12 -5z"/>
<path d="M918 2213 c6 -2 18 -2 25 0 6 3 1 5 -13 5 -14 0 -19 -2 -12 -5z"/>
<path d="M868 2203 c6 -2 18 -2 25 0 6 3 1 5 -13 5 -14 0 -19 -2 -12 -5z"/>
<path d="M798 2188 c-16 -5 -28 -13 -28 -18 0 -7 54 14 69 27 8 6 -13 2 -41
-9z"/>
<path d="M653 2125 c-108 -56 -186 -112 -177 -127 5 -7 3 -8 -5 -3 -15 9 -63
-33 -54 -48 3 -6 1 -7 -4 -4 -13 8 -46 -27 -36 -38 5 -4 3 -5 -3 -2 -7 4 -35
-21 -66 -61 -90 -111 -87 -104 -70 -165 25 -84 22 -370 -6 -468 -29 -108 -97
-239 -154 -301 -49 -53 -49 -53 -38 -93 45 -152 174 -302 317 -371 52 -25 82
-45 82 -55 2 -33 42 -149 52 -149 6 0 7 -6 3 -12 -6 -9 -3 -9 9 0 14 12 15 11
12 -10 -3 -16 3 -33 16 -46 11 -12 21 -22 22 -22 1 0 2 18 2 40 0 36 -1 39
-12 24 -7 -10 -13 -14 -14 -8 0 5 -2 22 -4 38 -2 15 -1 26 2 23 3 -4 12 0 19
8 16 16 20 125 4 125 -14 0 0 58 23 97 10 18 24 33 30 33 16 0 77 75 77 94 0
9 6 16 13 16 8 0 7 4 -3 10 -10 6 -11 10 -2 10 6 0 12 5 12 11 0 20 53 67 68
61 11 -4 13 -2 7 8 -6 10 -4 12 7 7 9 -3 19 -2 24 3 36 35 369 54 519 30 169
-27 353 -108 429 -190 45 -48 46 -51 46 -115 0 -41 4 -65 11 -65 6 0 43 17 83
37 134 70 269 233 305 370 11 42 11 43 -28 82 -57 57 -151 230 -151 277 0 8
-5 14 -11 14 -5 0 -8 4 -5 8 3 5 -1 40 -9 78 -8 38 -16 80 -19 94 -2 14 -2
-16 1 -65 5 -87 4 -91 -16 -92 -11 -1 -23 2 -26 8 -4 5 -17 9 -31 9 -13 0 -24
4 -24 9 0 4 -25 11 -56 14 -39 4 -61 12 -74 27 -20 23 -68 40 -113 40 -27 0
-28 2 -22 38 l5 37 -21 -34 c-14 -24 -17 -37 -10 -44 6 -6 11 -16 11 -21 0 -6
-6 -3 -12 8 -10 17 -14 15 -52 -26 -110 -117 -251 -178 -416 -178 -151 0 -281
52 -383 153 -112 112 -157 211 -165 364 -4 91 -2 112 22 186 14 47 34 95 45
108 15 18 16 28 8 46 -6 13 -16 23 -24 23 -20 0 -5 49 24 78 18 18 21 28 14
35 -17 17 -13 23 16 22 15 0 28 5 28 12 0 6 4 15 9 20 5 5 6 2 1 -5 -5 -10 -2
-13 11 -10 9 1 16 7 15 12 -2 5 3 13 11 17 9 6 9 9 1 9 -6 0 -51 -20 -100 -45z
m-103 -119 c-7 -7 -13 -7 -20 0 -6 6 -3 10 10 10 13 0 16 -4 10 -10z m60 -97
c0 -6 -4 -7 -10 -4 -5 3 -10 11 -10 16 0 6 5 7 10 4 6 -3 10 -11 10 -16z m-20
-65 c0 -8 -19 -13 -24 -6 -3 5 1 9 9 9 8 0 15 -2 15 -3z m-40 -1656 c0 -4 -4
-8 -9 -8 -6 0 -12 4 -15 8 -3 5 1 9 9 9 8 0 15 -4 15 -9z"/>
<path d="M760 2070 c-9 -6 -10 -10 -3 -10 6 0 15 5 18 10 8 12 4 12 -15 0z"/>
<path d="M677 1999 c-9 -5 -21 -8 -26 -5 -5 4 -7 -3 -4 -15 6 -20 6 -20 29 2
32 30 33 36 1 18z"/>
<path d="M2001 1724 c0 -11 3 -14 6 -6 3 7 2 16 -1 19 -3 4 -6 -2 -5 -13z"/>
<path d="M1973 1455 c0 -33 2 -45 4 -27 2 18 2 45 0 60 -2 15 -4 0 -4 -33z"/>
<path d="M1641 1444 c0 -11 3 -14 6 -6 3 7 2 16 -1 19 -3 4 -6 -2 -5 -13z"/>
<path d="M1625 1410 c-3 -5 -1 -10 4 -10 6 0 11 5 11 10 0 6 -2 10 -4 10 -3 0
-8 -4 -11 -10z"/>
<path d="M867 698 c-36 -13 -42 -38 -42 -188 0 -135 12 -184 47 -193 39 -11
55 23 63 127 15 202 -4 276 -68 254z m39 -52 c9 -36 1 -68 -19 -80 -21 -13
-37 5 -37 42 0 55 44 85 56 38z"/>
<path d="M1319 684 c-19 -23 -20 -308 -1 -341 25 -44 76 -22 89 37 10 47 4
260 -9 286 -16 35 -57 44 -79 18z m59 -26 c25 -25 12 -98 -18 -98 -20 0 -30
19 -30 55 0 50 22 69 48 43z"/>
<path d="M1676 155 c-11 -8 -16 -15 -10 -15 5 0 18 7 28 15 11 8 16 15 10 15
-5 0 -18 -7 -28 -15z"/>
<path d="M600 150 c-11 -7 -11 -10 -2 -10 7 0 10 -5 6 -11 -4 -8 -9 -8 -17 0
-6 6 -16 11 -21 11 -6 0 6 -11 26 -25 20 -14 41 -25 45 -25 4 0 0 5 -9 11 -21
12 -24 34 -4 26 9 -4 13 0 12 11 -3 20 -17 25 -36 12z"/>
<path d="M1619 138 c-8 -7 -12 -12 -10 -11 2 1 12 -2 22 -7 12 -7 20 -7 24 0
4 6 1 9 -7 8 -7 -2 -12 3 -10 10 1 6 1 12 -1 12 -2 0 -10 -6 -18 -12z"/>
<path d="M1600 99 c0 -5 5 -7 10 -4 6 3 10 8 10 11 0 2 -4 4 -10 4 -5 0 -10
-5 -10 -11z"/>
<path d="M1457 83 c-11 -11 14 -33 37 -32 11 0 37 7 56 14 l35 14 -32 -2 c-18
-1 -33 -5 -33 -9 0 -4 -9 -8 -20 -8 -11 0 -20 7 -20 15 0 16 -12 20 -23 8z"/>
<path d="M690 69 c0 -17 150 -44 240 -43 67 1 82 -1 50 -6 -61 -9 256 -12 340
-3 52 5 60 8 40 15 -17 5 -10 6 22 3 59 -6 83 2 67 21 -8 9 -17 10 -35 3 -37
-14 -51 -11 -28 6 26 20 9 19 -26 -2 -24 -14 -42 -15 -129 -7 -76 7 -102 6
-105 -3 -3 -6 5 -14 17 -16 12 -3 -14 -2 -58 1 -44 3 -99 6 -122 6 -34 1 -43
5 -43 19 0 22 -28 20 -120 -7 -24 -8 -24 -8 -5 8 19 14 18 15 -15 6 -42 -12
-63 -13 -56 -2 2 4 -4 8 -15 8 -10 0 -19 -3 -19 -7z m193 -16 c-7 -2 -21 -2
-30 0 -10 3 -4 5 12 5 17 0 24 -2 18 -5z m10 -20 c-7 -2 -19 -2 -25 0 -7 3 -2
5 12 5 14 0 19 -2 13 -5z m395 -10 c-10 -2 -26 -2 -35 0 -10 3 -2 5 17 5 19 0
27 -2 18 -5z"/>
<path d="M975 59 c57 -11 117 -11 110 1 -3 6 -39 9 -78 9 -65 -1 -68 -2 -32
-10z"/>
</g>
</svg>
